<svg xmlns:xlink="http://www.w3.org/1999/xlink" width="22" height="20" viewBox="0 0 22 20" fill="none" xmlns="http://www.w3.org/2000/svg">
											<path d="M11 -0.000366211C9.7075 -0.000366211 8.64286 1.1288 8.64286 2.49963C8.64286 3.43713 9.14021 4.26047 9.87093 4.68713L7.56171 9.58297L3.95214 6.8488C4.42593 6.38963 4.71429 5.72463 4.71429 4.99963C4.71429 3.6288 3.64964 2.49963 2.35714 2.49963C1.06464 2.49963 0 3.6288 0 4.99963C0 6.12297 0.727571 7.05713 1.694 7.36963L3.14286 15.833V19.9996H18.8571V15.833L20.306 7.36963C21.2724 7.05713 22 6.12297 22 4.99963C22 3.6288 20.9354 2.49963 19.6429 2.49963C18.3504 2.49963 17.2857 3.6288 17.2857 4.99963C17.2857 5.72547 17.5741 6.38963 18.0471 6.8488L14.4375 9.58297L12.1291 4.68713C12.4995 4.47233 12.8089 4.15608 13.0249 3.77133C13.2409 3.38658 13.3556 2.94742 13.3571 2.49963C13.3571 1.1288 12.2925 -0.000366211 11 -0.000366211ZM11 1.6663C11.4424 1.6663 11.7857 2.0313 11.7857 2.49963C11.7857 2.9688 11.4416 3.33297 11 3.33297C10.5576 3.33297 10.2143 2.96797 10.2143 2.49963C10.2143 2.03047 10.5584 1.6663 11 1.6663ZM2.35714 4.1663C2.7995 4.1663 3.14286 4.5313 3.14286 4.99963C3.14286 5.4688 2.79871 5.83297 2.35714 5.83297C1.91479 5.83297 1.57143 5.46797 1.57143 4.99963C1.57143 4.53047 1.91557 4.1663 2.35714 4.1663ZM19.6429 4.1663C20.0852 4.1663 20.4286 4.5313 20.4286 4.99963C20.4286 5.4688 20.0844 5.83297 19.6429 5.83297C19.2005 5.83297 18.8571 5.46797 18.8571 4.99963C18.8571 4.53047 19.2013 4.1663 19.6429 4.1663ZM11 6.0413L13.431 11.198L14.6096 11.5105L18.5381 8.5413L17.4326 14.9996H4.56736L3.46264 8.5413L7.39121 11.5105L8.56979 11.198L11 6.0413ZM4.71429 16.6663H17.2857V18.333H4.71429V16.6663Z" fill="#FFE351"></path>
											</svg>