<svg xmlns:xlink="http://www.w3.org/1999/xlink" width="24" height="24" viewBox="0 0 24 24" fill="none" xmlns="http://www.w3.org/2000/svg">
											<path d="M1.66024 8.82198L11.3985 21.4529C11.4693 21.5452 11.5604 21.6199 11.6646 21.6714C11.7689 21.7228 11.8836 21.7496 11.9999 21.7496C12.1162 21.7496 12.2309 21.7228 12.3352 21.6714C12.4395 21.6199 12.5306 21.5452 12.6013 21.4529L22.3396 8.82198C22.4354 8.69731 22.4909 8.54646 22.4989 8.38946C22.5068 8.23247 22.4668 8.07678 22.3841 7.94307L19.0809 2.61104C19.0129 2.5007 18.9178 2.40957 18.8046 2.34631C18.6915 2.28306 18.5641 2.24978 18.4345 2.24963H5.5654C5.43578 2.24978 5.30835 2.28306 5.19522 2.34631C5.08208 2.40957 4.987 2.5007 4.91899 2.61104L1.61571 7.94307C1.53305 8.07678 1.49304 8.23247 1.50099 8.38946C1.50895 8.54646 1.56449 8.69731 1.66024 8.82198V8.82198Z" stroke="#D42027" stroke-width="1.3px" stroke-linecap="round" stroke-linejoin="round" fill="none"></path>
											<path d="M2.25 8.24963H21.75" stroke="#D42027" stroke-width="1.3px" stroke-linecap="round" stroke-linejoin="round" fill="none"></path>
											<path d="M18.75 2.99963L16.5 8.24963L12 2.24963" stroke="#D42027" stroke-width="1.3px" stroke-linecap="round" stroke-linejoin="round" fill="none"></path>
											<path d="M5.25 2.99963L7.5 8.24963L12 2.24963" stroke="#D42027" stroke-width="1.3px" stroke-linecap="round" stroke-linejoin="round" fill="none"></path>
											<path d="M12 20.9996L7.5 8.24963" stroke="#D42027" stroke-width="1.3px" stroke-linecap="round" stroke-linejoin="round" fill="none"></path>
											<path d="M12 20.9996L16.5 8.24963" stroke="#D42027" stroke-width="1.3px" stroke-linecap="round" stroke-linejoin="round" fill="none"></path>
											</svg>